#!OML:ASF H:\Dans Jumps\Project 1\Capture day 1\Session 1\subject.ASF
:FULLY-SPECIFIED
:DEGREES
474
root 1.04045 17.6553 13.2697 6.12729 5.64579 -2.60543
lowerback -5.42508 -0.620978 0.883237
upperback 8.64313e-005 -0.927856 1.44087
thorax 3.0521 -0.458761 0.91404
lowerneck -12.0919 -4.4283 -4.61112
upperneck 14.3976 -5.93133 4.65364
head 6.65417 -2.73196 1.68835
rclavicle 5.52249e-015 3.8763e-015
rhumerus -25.4382 -16.9644 -82.8018
rradius 21.6267
rwrist 42.5559
rhand -19.6701 -25.6475
rfingers 7.12502
rthumb 6.6583 -55.5228
lclavicle 5.52249e-015 3.8763e-015
lhumerus -21.8678 -1.6918 90.2398
lradius 17.8582
lwrist 0.186978
lhand -23.7897 -6.17541
lfingers 7.12502
lthumb 2.68044 23.7875
rfemur -11.099 -4.40126 22.0208
rtibia 20.0398
rfoot -14.6043 0.276504
rtoes 16.4011
lfemur -6.98942 7.17757 -16.3602
ltibia 16.0398
lfoot -12.2281 5.83141
ltoes -7.56384
475
root 1.03925 17.6556 13.2659 6.13305 5.59111 -2.60684
lowerback -5.44476 -0.641442 0.864657
upperback 0.0232791 -0.954882 1.44449
thorax 3.08772 -0.472472 0.92571
lowerneck -12.0781 -4.52859 -4.59112
upperneck 14.3626 -6.07726 4.68889
head 6.64823 -2.79878 1.68225
rclavicle -3.08737e-015 -1.02374e-014
rhumerus -25.4422 -16.9363 -82.81
rradius 21.6564
rwrist 42.545
rhand -19.5536 -25.5882
rfingers 7.12502
rthumb 6.77077 -55.46
lclavicle -3.08737e-015 -1.02374e-014
lhumerus -22.0122 -1.85019 90.2794
lradius 18.0034
lwrist 0.458663
lhand -23.9659 -6.19963
lfingers 7.12502
lthumb 2.51031 23.7653
rfemur -11.1307 -4.39583 22.0239
rtibia 20.0483
rfoot -14.5892 0.327514
rtoes 16.4402
lfemur -6.98407 7.20663 -16.3582
ltibia 16.011
lfoot -12.2195 5.83947
ltoes -7.50058
476
root 1.03817 17.656 13.262 6.14141 5.53192 -2.6071
lowerback -5.46419 -0.65948 0.846622
upperback 0.044656 -0.978704 1.44943
thorax 3.12133 -0.4846 0.938683
lowerneck -12.0533 -4.61375 -4.56599
upperneck 14.3043 -6.20114 4.71404
head 6.63139 -2.85594 1.67464
rclavicle 1.55052e-014 3.67752e-015
rhumerus -25.4506 -16.9077 -82.8143
rradius 21.6944
rwrist 42.5342
rhand -19.4569 -25.5219
rfingers 7.12502
rthumb 6.86406 -55.3907
lclavicle 1.55052e-014 3.67752e-015
lhumerus -22.1632 -1.97442 90.3184
lradius 18.1355
lwrist 0.664615
lhand -24.13 -6.23718
lfingers 7.12502
lthumb 2.35181 23.7296
rfemur -11.1672 -4.39347 22.0252
rtibia 20.0588
rfoot -14.5738 0.384154
rtoes 16.47
lfemur -6.98091 7.23391 -16.3589
ltibia 15.9819
lfoot -12.2079 5.85336
ltoes -7.43682
477
root 1.03722 17.6564 13.258 6.15118 5.46845 -2.60551
lowerback -5.48279 -0.676251 0.827589
upperback 0.0658307 -1.00081 1.45654
thorax 3.15433 -0.495917 0.954582
lowerneck -12.0232 -4.68714 -4.54068
upperneck 14.2282 -6.30729 4.73313
head 6.60686 -2.90532 1.66708
rclavicle -1.50828e-014 -1.32192e-014
rhumerus -25.4513 -16.8933 -82.8139
rradius 21.7256
rwrist 42.5355
rhand -19.3847 -25.4521
rfingers 7.12502
rthumb 6.93381 -55.3186
lclavicle -1.50828e-014 -1.32192e-014
lhumerus -22.3155 -2.06551 90.3571
lradius 18.2529
lwrist 0.816582
lhand -24.2815 -6.27437
lfingers 7.12502
lthumb 2.20552 23.694
rfemur -11.2071 -4.3921 22.0236
rtibia 20.0717
rfoot -14.5591 0.445446
rtoes 16.5028
lfemur -6.97729 7.25738 -16.363
ltibia 15.9511
lfoot -12.1946 5.87431
ltoes -7.37219
478
root 1.03634 17.6569 13.2541 6.16196 5.40376 -2.60127
lowerback -5.50011 -0.692963 0.806782
upperback 0.0842005 -1.02272 1.46578
thorax 3.18381 -0.50719 0.973704
lowerneck -11.9829 -4.74431 -4.51436
upperneck 14.1342 -6.38984 4.74537
head 6.57343 -2.94421 1.65989
rclavicle -3.85145e-015 1.07344e-014
rhumerus -25.4527 -16.8863 -82.8091
rradius 21.7563
rwrist 42.5336
rhand -19.3268 -25.3945
rfingers 7.12502
rthumb 6.98969 -55.2591
lclavicle -3.85145e-015 1.07344e-014
lhumerus -22.473 -2.12076 90.3947
lradius 18.3535
lwrist 0.917544
lhand -24.4106 -6.29988
lfingers 7.12502
lthumb 2.08077 23.6697
rfemur -11.2486 -4.39412 22.0189
rtibia 20.086
rfoot -14.5457 0.509308
rtoes 16.5355
lfemur -6.97421 7.27751 -16.3711
ltibia 15.9206
lfoot -12.1791 5.9007
ltoes -7.31671
479
root 1.03549 17.6573 13.2502 6.17066 5.33736 -2.59711
lowerback -5.51522 -0.708954 0.787166
upperback 0.101461 -1.04374 1.47722
thorax 3.21094 -0.518035 0.994509
lowerneck -11.931 -4.79083 -4.50698
upperneck 14.026 -6.45576 4.76797
head 6.53366 -2.97562 1.66111
rclavicle -5.76476e-015 1.48095e-014
rhumerus -25.449 -16.904 -82.7962
rradius 21.7742
rwrist 42.5387
rhand -19.2856 -25.3554
rfingers 7.12502
rthumb 7.02948 -55.2187
lclavicle -5.76476e-015 1.48095e-014
lhumerus -22.6293 -2.14764 90.4318
lradius 18.4331
lwrist 0.983755
lhand -24.5128 -6.30826
lfingers 7.12502
lthumb 1.98207 23.6623
rfemur -11.2878 -4.39201 22.0139
rtibia 20.1006
rfoot -14.5327 0.569879
rtoes 16.5567
lfemur -6.96895 7.29238 -16.379
ltibia 15.8923
lfoot -12.1622 5.93319
ltoes -7.26161
480
root 1.0346 17.6577 13.2463 6.17708 5.27195 -2.59454
lowerback -5.52655 -0.724189 0.770631
upperback 0.117725 -1.06392 1.49013
thorax 3.2349 -0.528432 1.01522
lowerneck -11.882 -4.83798 -4.54677
upperneck 13.9201 -6.51917 4.82372
head 6.49779 -3.00559 1.68072
rclavicle 3.68373e-015 5.66536e-015
rhumerus -25.4459 -16.9303 -82.7801
rradius 21.7935
rwrist 42.5272
rhand -19.2467 -25.3419
rfingers 7.12502
rthumb 7.067 -55.204
lclavicle 3.68373e-015 5.66536e-015
lhumerus -22.7783 -2.17428 90.4727
lradius 18.4829
lwrist 1.04205
lhand -24.582 -6.28607
lfingers 7.12502
lthumb 1.91527 23.6851
rfemur -11.3241 -4.38715 22.0109
rtibia 20.1139
rfoot -14.5193 0.626211
rtoes 16.5771
lfemur -6.96498 7.30692 -16.385
ltibia 15.8701
lfoot -12.1473 5.96795
ltoes -7.21827
481
root 1.03357 17.658 13.2421 6.1808 5.20536 -2.59628
lowerback -5.5312 -0.737951 0.759275
upperback 0.133468 -1.08239 1.50458
thorax 3.25451 -0.537922 1.03482
lowerneck -11.8367 -4.88508 -4.63267
upperneck 13.8175 -6.58017 4.91713
head 6.46646 -3.03373 1.7199
rclavicle 1.82509e-014 -9.93923e-016
rhumerus -25.4452 -16.9574 -82.7637
rradius 21.8183
rwrist 42.4934
rhand -19.2095 -25.3503
rfingers 7.12502
rthumb 7.10291 -55.2111
lclavicle 1.82509e-014 -9.93923e-016
lhumerus -22.9163 -2.20234 90.5153
lradius 18.5008
lwrist 1.09119
lhand -24.6203 -6.25538
lfingers 7.12502
lthumb 1.87833 23.7161
rfemur -11.358 -4.36884 22.0136
rtibia 20.1256
rfoot -14.5039 0.669325
rtoes 16.5873
lfemur -6.96372 7.32189 -16.3855
ltibia 15.8552
lfoot -12.1327 6.0056
ltoes -7.17363
482
root 1.03237 17.6582 13.2377 6.18157 5.13713 -2.60383
lowerback -5.53035 -0.750495 0.753253
upperback 0.14995 -1.09959 1.52157
thorax 3.27175 -0.546721 1.05421
lowerneck -11.8013 -4.93203 -4.75478
upperneck 13.7242 -6.63876 5.03786
head 6.44201 -3.06018 1.77357
rclavicle 2.80783e-015 -8.74653e-015
rhumerus -25.4505 -16.9661 -82.75
rradius 21.8559
rwrist 42.4231
rhand -19.181 -25.3723
rfingers 7.12502
rthumb 7.13043 -55.2321
lclavicle 2.80783e-015 -8.74653e-015
lhumerus -23.0398 -2.22575 90.558
lradius 18.4862
lwrist 1.12536
lhand -24.6264 -6.20946
lfingers 7.12502
lthumb 1.87241 23.7621
rfemur -11.389 -4.33394 22.0234
rtibia 20.1347
rfoot -14.4866 0.699028
rtoes 16.6063
lfemur -6.96607 7.33869 -16.3787
ltibia 15.8489
lfoot -12.1184 6.04531
ltoes -7.13666
483
root 1.03126 17.6583 13.2329 6.18121 5.06904 -2.6129
lowerback -5.52405 -0.762835 0.751551
upperback 0.164586 -1.11671 1.53972
thorax 3.28397 -0.555426 1.07246
lowerneck -11.772 -4.97318 -4.88467
upperneck 13.639 -6.68834 5.16005
head 6.42119 -3.0824 1.82964
rclavicle -7.66563e-015 -1.43125e-014
rhumerus -25.4631 -16.9697 -82.7334
rradius 21.8979
rwrist 42.3382
rhand -19.1686 -25.3918
rfingers 7.12502
rthumb 7.14243 -55.2512
lclavicle -7.66563e-015 -1.43125e-014
lhumerus -23.1527 -2.24903 90.602
lradius 18.4395
lwrist 1.14533
lhand -24.5974 -6.13702
lfingers 7.12502
lthumb 1.90043 23.8343
rfemur -11.4187 -4.29722 22.0346
rtibia 20.1412
rfoot -14.4669 0.727841
rtoes 16.6336
lfemur -6.97257 7.35872 -16.3707
ltibia 15.8499
lfoot -12.1073 6.08293
ltoes -7.09811
484
root 1.03013 17.6585 13.2278 6.18135 5.00041 -2.62358
lowerback -5.51273 -0.775409 0.751567
upperback 0.17648 -1.13418 1.55959
thorax 3.29056 -0.564295 1.09158
lowerneck -11.7478 -5.00098 -4.99214
upperneck 13.5588 -6.71991 5.25843
head 6.40041 -3.09654 1.87613
rclavicle -9.61e-015 -1.25234e-014
rhumerus -25.4809 -16.9768 -82.7117
rradius 21.9391
rwrist 42.2529
rhand -19.1801 -25.4057
rfingers 7.12502
rthumb 7.13129 -55.2655
lclavicle -9.61e-015 -1.25234e-014
lhumerus -23.2592 -2.25029 90.6416
lradius 18.3707
lwrist 1.12774
lhand -24.5376 -6.04109
lfingers 7.12502
lthumb 1.95817 23.9297
rfemur -11.4491 -4.25249 22.048
rtibia 20.1445
rfoot -14.4439 0.74896
rtoes 16.6682
lfemur -6.98513 7.37689 -16.3609
ltibia 15.8583
lfoot -12.095 6.12214
ltoes -7.0594
485
root 1.02905 17.6587 13.2226 6.18149 4.93026 -2.63371
lowerback -5.49712 -0.788449 0.751566
upperback 0.184729 -1.15217 1.58097
thorax 3.29103 -0.573445 1.11229
lowerneck -11.7218 -5.01287 -5.06317
upperneck 13.4803 -6.73044 5.31907
head 6.37616 -3.10166 1.90685
rclavicle 9.60378e-015 2.09718e-014
rhumerus -25.5017 -16.9877 -82.6851
rradius 21.972
rwrist 42.1724
rhand -19.2096 -25.4138
rfingers 7.12502
rthumb 7.10284 -55.2746
lclavicle 9.60378e-015 2.09718e-014
lhumerus -23.3607 -2.2165 90.6752
lradius 18.2802
lwrist 1.05938
lhand -24.4547 -5.9194
lfingers 7.12502
lthumb 2.03819 24.0506
rfemur -11.4791 -4.20086 22.0606
rtibia 20.1457
rfoot -14.419 0.76462
rtoes 16.6884
lfemur -6.99947 7.39135 -16.3518
ltibia 15.8697
lfoot -12.0812 6.16478
ltoes -7.02402
486
root 1.02817 17.6588 13.2174 6.18236 4.86201 -2.64318
lowerback -5.48405 -0.803204 0.753273
upperback 0.192835 -1.17263 1.60312
thorax 3.29281 -0.583799 1.13262
lowerneck -11.6939 -5.01235 -5.09483
upperneck 13.3952 -6.72464 5.34058
head 6.34587 -3.10006 1.92045
rclavicle -2.61526e-015 -2.11706e-014
rhumerus -25.5158 -17.0084 -82.6565
rradius 21.9932
rwrist 42.1082
rhand -19.241 -25.4257
rfingers 7.12502
rthumb 7.07256 -55.2876
lclavicle -2.61526e-015 -2.11706e-014
lhumerus -23.4551 -2.14859 90.7022
lradius 18.1732
lwrist 0.938411
lhand -24.3609 -5.78065
lfingers 7.12502
lthumb 2.1288 24.1885
rfemur -11.5073 -4.15153 22.0712
rtibia 20.1456
rfoot -14.3942 0.782941
rtoes 16.7234
lfemur -7.01572 7.40409 -16.3442
ltibia 15.8832
lfoot -12.0673 6.20795
ltoes -6.99241
487
root 1.02759 17.6588 13.2127 6.18282 4.79466 -2.64556
lowerback -5.47415 -0.81987 0.750595
upperback 0.200784 -1.19538 1.62434
thorax 3.29633 -0.595356 1.15422
lowerneck -11.677 -4.9979 -5.0903
upperneck 13.3193 -6.70026 5.32415
head 6.31677 -3.09033 1.91769
rclavicle 1.9953e-014 1.54058e-014
rhumerus -25.5264 -17.0311 -82.6263
rradius 22.0046
rwrist 42.0506
rhand -19.2723 -25.4423
rfingers 7.12502
rthumb 7.0423 -55.3051
lclavicle 1.9953e-014 1.54058e-014
lhumerus -23.5415 -2.05417 90.7256
lradius 18.0483
lwrist 0.778464
lhand -24.27 -5.61655
lfingers 7.12502
lthumb 2.21656 24.3517
rfemur -11.5317 -4.1118 22.0722
rtibia 20.1458
rfoot -14.371 0.810185
rtoes 16.7642
lfemur -7.0285 7.4166 -16.3452
ltibia 15.8963
lfoot -12.0545 6.25085
ltoes -6.96908
488
root 1.0272 17.6587 13.2082 6.1816 4.72914 -2.64251
lowerback -5.4656 -0.836845 0.745179
upperback 0.207803 -1.2183 1.64339
thorax 3.29968 -0.607028 1.17509
lowerneck -11.6638 -4.98268 -5.08445
upperneck 13.2512 -6.67422 5.30084
head 6.29045 -3.08012 1.91255
rclavicle -2.21272e-014 3.97569e-015
rhumerus -25.5368 -17.0638 -82.5941
rradius 22.0084
rwrist 42.0045
rhand -19.2906 -25.464
rfingers 7.12502
rthumb 7.02462 -55.3274
lclavicle -2.21272e-014 3.97569e-015
lhumerus -23.6221 -1.9527 90.7476
lradius 17.9059
lwrist 0.59356
lhand -24.1853 -5.44778
lfingers 7.12502
lthumb 2.29837 24.5196
rfemur -11.5518 -4.07755 22.0661
rtibia 20.1476
rfoot -14.3516 0.841931
rtoes 16.8163
lfemur -7.03727 7.42984 -16.3524
ltibia 15.9083
lfoot -12.0447 6.29182
ltoes -6.95196
